<svg xmlns="http://www.w3.org/2000/svg" xmlns:xlink="http://www.w3.org/1999/xlink" viewBox="0 0 85.09 30.41"><defs><style>.cls-1{fill:none;}.cls-2{clip-path:url(#clip-path);}.cls-3{clip-path:url(#clip-path-2);}.cls-4{font-size:22.39px;font-family:MyriadPro-Regular, Myriad Pro;}.cls-4,.cls-7{fill:#fff;}.cls-5{letter-spacing:0em;}.cls-6{letter-spacing:-0.01em;}</style><clipPath id="clip-path" transform="translate(0 0)"><rect class="cls-1" width="85.09" height="30.4"/></clipPath><clipPath id="clip-path-2" transform="translate(0 0)"><rect class="cls-1" width="85.09" height="30.41"/></clipPath></defs><title>Asset 1</title><g id="Layer_2" data-name="Layer 2"><g id="Layer_1-2" data-name="Layer 1"><g id="Artwork_14" data-name="Artwork 14"><g class="cls-2"><g class="cls-3"><text class="cls-4" transform="translate(19.13 24.68) scale(1 1.02)">T<tspan class="cls-5" x="11.13" y="0">R</tspan><tspan class="cls-6" x="23.28" y="0">A</tspan><tspan x="36.67" y="0">XIT</tspan></text><path class="cls-7" d="M3.17,27.71c1.69-1.38,3.36-2.76,5-4.12l5.17-4.13c.6-.49,1.19-1,1.78-1.5.24-.21.41-.28.68,0a10.07,10.07,0,0,0,3.92,2.44.45.45,0,0,1,.35.38c.28,1.16.58,2.32.94,3.45.15.49-.11.45-.36.39a20.38,20.38,0,0,1-2.76-.83,15.18,15.18,0,0,1-3.4-1.92.32.32,0,0,0-.39,0c-1.71,1-3.42,1.91-5.14,2.85l-3.72,2-1.78,1c-.1.05-.18.13-.33.05" transform="translate(0 0)"/><path class="cls-7" d="M16.32,11.23c-1,.7-1.93,1.34-2.87,1.94-.32.21-.42.39-.28.77a10,10,0,0,0,2.05,3.41,2.22,2.22,0,0,1,.19.24c-.91.14-1.77.3-2.63.41a14.83,14.83,0,0,1-1.51.21c-.15,0-.2,0-.27-.12a11,11,0,0,1-1.71-4.91c0-.23-.1-.45-.09-.69s-.1-.21-.26-.26L.27,9.57A.48.48,0,0,1,0,9.36l16.32,1.87" transform="translate(0 0)"/><path class="cls-7" d="M16.11,6.18c-.46.39-1,.66-1.44,1.1a6.44,6.44,0,0,0-.94,1.21c-.07.12-.11.27-.3.25-.55-.08-1.09.14-1.64.09s-1.08.11-1.63.1c-.23,0-.33,0-.2-.29A8.3,8.3,0,0,1,12.48,5.5c.31-.24.36-.38.12-.73C11.67,3.39,10.79,2,9.9.57A1.56,1.56,0,0,1,9.84.25c.55.52,1,1,1.46,1.37,1.07,1,2.08,2.06,3.16,3,.56.5,1.06,1.07,1.65,1.53Z" transform="translate(0 0)"/><path class="cls-7" d="M16.11,6.18a10.55,10.55,0,0,0-.42-1.85c-.1-.38,0-.53.32-.6a10.84,10.84,0,0,1,3.48-.36c.66.08.74-.21.89-.67A20.34,20.34,0,0,1,21.43,0c.2,2.44.39,4.89.59,7.41a12,12,0,0,1-1.9-1.66,1.5,1.5,0,0,0-1.45-.38,11.39,11.39,0,0,0-2.56.81Z" transform="translate(0 0)"/><path class="cls-7" d="M31.17,4.77c-.49.41-1,.81-1.49,1.21-.74.59-1.48,1.16-2.2,1.76-.2.15-.37.28-.59.09A8.39,8.39,0,0,0,24.4,6.28c-.68-.26-.68-.93-1-1.41,0,0,0-.09,0-.14-.07-.24-.42-.49-.21-.68s.51.1.76.19a15.58,15.58,0,0,1,3,1.51.62.62,0,0,0,.64.07c1.16-.4,2.33-.77,3.5-1.15l.06.1" transform="translate(0 0)"/></g></g></g></g></g></svg>